<svg id="Layer_1" enable-background="new 0 0 128 128" height="512" viewBox="0 0 128 128" width="512" xmlns="http://www.w3.org/2000/svg"><path d="m120.333 50.92h-9.141v-4.423c0-5.121-4.166-9.287-9.287-9.287h-6.576v-8.012c0-1.855-1.509-3.364-3.364-3.364h-52.438c-1.855 0-3.364 1.509-3.364 3.364v8.012h-6.575c-5.121 0-9.288 4.166-9.288 9.287v12.727h-8.633c-2.329 0-4.224 1.895-4.224 4.224v15.025c0 2.329 1.895 4.225 4.224 4.225h.805v5.565c0 .394.23.751.59.912.132.059.271.088.41.088.24 0 .477-.086.663-.252l6.165-5.467v11.358h-8.372c-.553 0-1 .447-1 1v3.688c0 3.626 2.95 6.575 6.576 6.575h96.487c3.625 0 6.574-2.949 6.574-6.575v-3.688c0-.553-.447-1-1-1h-8.372v-20.113l6.674 5.918c.187.166.423.252.663.252.139 0 .278-.029.41-.088.359-.161.59-.519.59-.912v-5.565h.804c2.329 0 4.224-1.896 4.224-4.225v-15.025c-.001-2.329-1.896-4.224-4.225-4.224z" fill="#e6e7e8"/><path d="m91.232 47.92h14.961v-5.423c0-4.576-3.71-8.287-8.287-8.287h-7.576v13.854c.288-.085.587-.144.902-.144z" fill="#fff"/><path d="m91.232 69.393c-.316 0-.614-.059-.903-.144v22.654h15.863v-22.51z" fill="#fff"/><path d="m33.162 56.264v-22.054h-7.574c-4.578 0-8.289 3.711-8.289 8.287v13.727h15.469c.135 0 .263.024.394.04z" fill="#fff"/><path d="m32.768 77.697h-15.469v14.206h15.863v-14.246c-.131.016-.259.04-.394.04z" fill="#fff"/><path d="m32.768 77.697h-15.469v14.206h15.863v-14.246c-.131.016-.259.04-.394.04z" fill="#0089ef"/><path d="m33.162 56.264v-19.61h-7.574c-4.578 0-8.289 3.711-8.289 8.287v11.284h15.469c.135-.001.263.023.394.039z" fill="#0089ef"/><path d="m91.232 47.92h14.961v-2.98c0-4.576-3.71-8.287-8.287-8.287h-7.576v11.411c.288-.085.587-.144.902-.144z" fill="#0089ef"/><path d="m91.232 69.393c-.316 0-.614-.059-.903-.144v22.654h15.863v-22.51z" fill="#0089ef"/><path d="m33.162 56.264v-13.767h-9.273v13.727h8.879c.135 0 .263.024.394.04z" fill="#6dc9f7"/><path d="m91.232 47.92h8.37v-5.423h-9.272v5.567c.288-.085.587-.144.902-.144z" fill="#6dc9f7"/><path d="m91.232 69.393c-.316 0-.614-.059-.903-.144v22.654h9.273v-22.51z" fill="#6dc9f7"/><path d="m32.768 77.697h-8.879v14.206h9.273v-14.246c-.131.016-.259.04-.394.04z" fill="#6dc9f7"/><path d="m18.299 42.497c0-4.018 3.27-7.286 7.289-7.286h7.574v-2h-7.574c-5.122 0-9.289 4.166-9.289 9.286v13.727h2z" fill="#3a2c60"/><path d="m105.193 42.497v5.423h2v-5.423c0-5.12-4.166-9.286-9.287-9.286h-7.576v2h7.576c4.019 0 7.287 3.268 7.287 7.286z" fill="#3a2c60"/><path d="m107.126 69.393h-1.933v21.509h-14.863v1h-57.168v-1h-14.863v-13.205h-1.425l-.575.51v13.695c0 .553.447 1 1 1h88.895c.553 0 1-.447 1-1v-22.449z" fill="#3a2c60"/><path d="m90.33 48.064v-22.866c0-1.306-1.059-2.364-2.364-2.364h-52.44c-1.306 0-2.364 1.058-2.364 2.364v31.065c1.592.197 2.83 1.539 2.83 3.184v15.025c0 1.646-1.237 2.988-2.83 3.185v14.246h57.168v-22.654c-1.338-.392-2.321-1.615-2.321-3.08v-15.026c-.001-1.464.983-2.687 2.321-3.079z" fill="#d4fbff"/><path d="m74.448 23.834h-5.618c-.553 0-1-.447-1-1s.447-1 1-1h5.618c.553 0 1 .447 1 1s-.447 1-1 1z" fill="#3a2c60"/><path d="m79.112 23.834h8.854c.752 0 1.364.612 1.364 1.364v23.355c.534-.393 1.188-.633 1.903-.633h.097v-22.722c0-1.855-1.509-3.364-3.364-3.364h-8.854c-.553 0-1 .447-1 1s.447 1 1 1z" fill="#3a2c60"/><path d="m32.768 56.224c.502 0 .971.125 1.394.329v-31.355c0-.752.612-1.364 1.364-1.364h28.762c.553 0 1-.447 1-1s-.447-1-1-1h-28.762c-1.855 0-3.364 1.509-3.364 3.364v31.026z" fill="#3a2c60"/><path d="m91.232 69.393c-.714 0-1.368-.24-1.903-.633v22.142h-55.167v-13.534c-.423.204-.892.329-1.394.329h-.606v15.205h59.168v-23.509z" fill="#3a2c60"/><path d="m116.334 69.393c1.781 0 3.224-1.443 3.224-3.224v-15.025c0-1.78-1.443-3.223-3.224-3.223h-25.102c-1.781 0-3.224 1.444-3.224 3.223v15.025c0 1.781 1.443 3.224 3.224 3.224h15.894l7.403 6.565v-6.565z" fill="#fa759e"/><path d="m114.529 76.959c-.24 0-.477-.086-.663-.252l-7.12-6.313h-15.514c-2.329 0-4.224-1.896-4.224-4.225v-15.026c0-2.329 1.895-4.224 4.224-4.224h25.102c2.329 0 4.224 1.895 4.224 4.224v15.025c0 2.329-1.895 4.225-4.224 4.225h-.805v5.565c0 .394-.23.751-.59.912-.132.06-.271.089-.41.089zm-23.297-28.039c-1.227 0-2.224.997-2.224 2.224v15.025c0 1.227.997 2.225 2.224 2.225h15.894c.244 0 .48.09.663.252l5.74 5.09v-4.342c0-.553.447-1 1-1h1.805c1.227 0 2.224-.998 2.224-2.225v-15.026c0-1.227-.997-2.224-2.224-2.224h-25.102z" fill="#3a2c60"/><path d="m96.262 56.276c-1.308 0-2.369 1.061-2.369 2.369s1.06 2.369 2.369 2.369c1.308 0 2.369-1.061 2.369-2.369s-1.061-2.369-2.369-2.369z" fill="#fff"/><path d="m103.783 56.276c-1.308 0-2.369 1.061-2.369 2.369s1.06 2.369 2.369 2.369c1.308 0 2.369-1.061 2.369-2.369s-1.061-2.369-2.369-2.369z" fill="#fff"/><path d="m111.304 56.276c-1.308 0-2.369 1.061-2.369 2.369s1.06 2.369 2.369 2.369c1.308 0 2.369-1.061 2.369-2.369s-1.061-2.369-2.369-2.369z" fill="#fff"/><path d="m7.666 77.697c-1.781 0-3.224-1.443-3.224-3.224v-15.026c0-1.78 1.443-3.223 3.224-3.223h25.101c1.781 0 3.224 1.444 3.224 3.223v15.025c0 1.781-1.443 3.224-3.224 3.224h-15.893l-7.403 6.565v-6.565h-1.805z" fill="#6dc9f7"/><path d="m9.47 85.263c-.139 0-.278-.029-.41-.088-.359-.161-.59-.519-.59-.912v-5.565h-.803c-1.129 0-2.189-.439-2.987-1.237s-1.237-1.859-1.236-2.988v-15.026c0-2.329 1.895-4.224 4.224-4.224h25.101c2.329 0 4.225 1.895 4.225 4.224v15.025c0 2.329-1.896 4.225-4.225 4.225h-15.515l-7.12 6.313c-.187.167-.423.253-.664.253zm-1.803-28.039c-1.227 0-2.224.997-2.224 2.224v15.025c0 .595.23 1.153.65 1.573s.979.651 1.573.651h1.804c.553 0 1 .447 1 1v4.342l5.74-5.09c.183-.162.419-.252.663-.252h15.894c1.227 0 2.225-.998 2.225-2.225v-15.025c0-1.227-.998-2.224-2.225-2.224h-25.1z" fill="#3a2c60"/><path d="m27.738 64.58c-1.308 0-2.369 1.06-2.369 2.369 0 1.308 1.06 2.368 2.369 2.368 1.308 0 2.369-1.06 2.369-2.368 0-1.309-1.061-2.369-2.369-2.369z" fill="#fff"/><path d="m20.217 64.58c-1.308 0-2.369 1.06-2.369 2.369 0 1.308 1.06 2.368 2.369 2.368 1.308 0 2.369-1.06 2.369-2.368 0-1.309-1.061-2.369-2.369-2.369z" fill="#fff"/><path d="m12.696 64.58c-1.308 0-2.369 1.06-2.369 2.369 0 1.308 1.06 2.368 2.369 2.368 1.308 0 2.369-1.06 2.369-2.368 0-1.309-1.061-2.369-2.369-2.369z" fill="#fff"/><path d="m48.362 35.66c.92-.511 1.386-1.278 1.386-2.284 0-.318-.053-.625-.158-.911s-.259-.552-.458-.788-.431-.434-.688-.588c-.303-.184-.65-.309-1.031-.374-.372-.063-.817-.095-1.323-.095h-3.399c-.485 0-.845.114-1.07.34-.226.225-.34.59-.34 1.085v7.886c0 .484.111.845.331 1.075.221.232.584.349 1.079.349h3.206c.556 0 1.05-.028 1.469-.083.424-.056.805-.154 1.135-.292.531-.233.958-.599 1.27-1.087s.47-1.043.47-1.651c.001-1.235-.631-2.102-1.879-2.582zm-1.105-1.39c-.139.256-.333.425-.595.515-.274.095-.674.144-1.187.144h-1.824v-2.468h1.603c.751 0 1.314.084 1.673.25.333.154.494.463.494.945 0 .224-.054.429-.164.614zm.587 3.815c0 .963-.665 1.431-2.032 1.431h-2.161v-2.819h2.089c.712 0 1.251.114 1.602.338.338.217.502.561.502 1.05z" fill="#fa759e"/><path d="m59.082 39.366h-4.186v-7.514c0-.464-.111-.818-.33-1.053-.221-.237-.512-.357-.866-.357-.349 0-.636.122-.853.362-.213.237-.321.589-.321 1.048v8.079c0 .489.114.853.339 1.081.226.228.591.344 1.085.344h5.131c.377 0 .672-.091.875-.27.208-.183.313-.425.313-.718 0-.287-.106-.53-.316-.72-.204-.187-.497-.282-.871-.282z" fill="#fa759e"/><path d="m69.024 31.12c-.795-.45-1.758-.678-2.862-.678-.813 0-1.551.129-2.192.384-.644.256-1.198.631-1.647 1.114-.448.483-.796 1.075-1.031 1.761-.235.682-.354 1.442-.354 2.258 0 .796.114 1.548.339 2.235.226.691.566 1.291 1.01 1.783.444.493 1.006.881 1.669 1.151.661.27 1.417.406 2.25.406.837 0 1.592-.133 2.243-.395.654-.263 1.213-.65 1.662-1.148.448-.497.789-1.092 1.013-1.768.223-.672.335-1.429.335-2.25 0-1.111-.207-2.093-.614-2.92-.41-.831-1.022-1.482-1.821-1.933zm-3.989 1.484c.343-.152.722-.229 1.128-.229.57 0 1.082.139 1.52.414.437.274.779.686 1.016 1.223.24.545.362 1.2.362 1.947 0 .808-.132 1.496-.393 2.044-.258.543-.608.949-1.04 1.207-.434.259-.918.391-1.437.391-.406 0-.782-.076-1.121-.226-.337-.149-.64-.378-.902-.68-.262-.303-.468-.692-.613-1.155-.146-.468-.22-1-.22-1.581 0-.576.074-1.102.22-1.562.145-.457.344-.836.592-1.128.248-.289.546-.513.888-.665z" fill="#fa759e"/><path d="m83.38 36.083c-.143-.205-.334-.339-.567-.399-.214-.055-.477-.083-.782-.083h-2.412c-.321 0-.581.088-.772.26-.195.176-.294.401-.294.67 0 .331.123.571.364.713.224.132.538.196.96.196h1.524v1.508c-.413.217-.825.388-1.226.507-.418.125-.873.188-1.35.188-.969 0-1.734-.32-2.272-.952-.543-.637-.819-1.566-.819-2.762 0-.553.072-1.063.213-1.517.14-.449.344-.833.606-1.141.261-.306.58-.543.947-.704.369-.162.796-.244 1.268-.244.457 0 .836.068 1.126.203.291.135.524.303.693.499.177.204.397.513.66.923.106.144.24.257.397.337s.324.121.495.121c.308 0 .576-.106.796-.316.222-.212.335-.471.335-.772 0-.267-.092-.573-.272-.909-.178-.332-.446-.65-.795-.944-.349-.295-.807-.542-1.363-.734-.554-.192-1.199-.289-1.915-.289-.869 0-1.659.129-2.347.383-.691.255-1.286.63-1.769 1.112-.483.483-.854 1.078-1.102 1.77-.247.687-.372 1.455-.372 2.281 0 .841.129 1.613.383 2.297.255.686.627 1.278 1.105 1.761s1.063.856 1.74 1.109c.674.252 1.43.38 2.247.38.699 0 1.355-.081 1.95-.24.593-.159 1.218-.416 1.858-.762.227-.124.417-.255.565-.389.156-.143.265-.306.323-.485.057-.174.085-.396.085-.679v-2.011c0-.392-.069-.682-.211-.886z" fill="#fa759e"/><g fill="#0089ef"><path d="m81.577 48.297h-16.997c-.54 0-.978-.438-.978-.978s.438-.978.978-.978h16.997c.54 0 .978.438.978.978s-.438.978-.978.978z"/><path d="m81.577 53.74h-16.997c-.54 0-.978-.438-.978-.978s.438-.978.978-.978h16.997c.54 0 .978.438.978.978s-.438.978-.978.978z"/><path d="m81.577 59.184h-16.997c-.54 0-.978-.438-.978-.978s.438-.978.978-.978h16.997c.54 0 .978.438.978.978s-.438.978-.978.978z"/><path d="m81.577 64.627h-16.997c-.54 0-.978-.438-.978-.978s.438-.978.978-.978h16.997c.54 0 .978.438.978.978-.001.54-.438.978-.978.978z"/><path d="m81.577 70.071h-16.997c-.54 0-.978-.438-.978-.978s.438-.978.978-.978h16.997c.54 0 .978.438.978.978s-.438.978-.978.978z"/><path d="m81.577 75.515h-16.997c-.54 0-.978-.438-.978-.978s.438-.978.978-.978h16.997c.54 0 .978.438.978.978s-.438.978-.978.978z"/><path d="m81.577 80.958h-16.997c-.54 0-.978-.438-.978-.978s.438-.978.978-.978h16.997c.54 0 .978.438.978.978s-.438.978-.978.978z"/><path d="m81.577 86.401h-16.997c-.54 0-.978-.438-.978-.978s.438-.978.978-.978h16.997c.54 0 .978.438.978.978s-.438.978-.978.978z"/><path d="m59.914 70.071h-18.664c-.54 0-.978-.438-.978-.978s.438-.978.978-.978h18.664c.54 0 .978.438.978.978s-.438.978-.978.978z"/><path d="m59.914 75.515h-18.664c-.54 0-.978-.438-.978-.978s.438-.978.978-.978h18.664c.54 0 .978.438.978.978s-.438.978-.978.978z"/><path d="m59.914 80.958h-18.664c-.54 0-.978-.438-.978-.978s.438-.978.978-.978h18.664c.54 0 .978.438.978.978s-.438.978-.978.978z"/><path d="m59.914 86.401h-18.664c-.54 0-.978-.438-.978-.978s.438-.978.978-.978h18.664c.54 0 .978.438.978.978s-.438.978-.978.978z"/></g><path d="m60.293 45.995h-17.922c-.619 0-1.121.502-1.121 1.121v16.914c0 .619.502 1.121 1.121 1.121h17.922c.619 0 1.12-.502 1.12-1.121v-16.915c0-.619-.501-1.12-1.12-1.12z" fill="#6dc9f7"/><path d="m115.565 91.903v3.688c0 3.078-2.496 5.575-5.575 5.575h-96.487c-3.079 0-5.576-2.496-5.576-5.575v-3.688z" fill="#fa759e"/><path d="m109.99 102.166h-96.487c-3.626 0-6.576-2.949-6.576-6.575v-3.688c0-.553.447-1 1-1h107.639c.553 0 1 .447 1 1v3.688c-.001 3.626-2.95 6.575-6.576 6.575zm-101.063-9.263v2.688c0 2.522 2.053 4.575 4.576 4.575h96.487c2.522 0 4.575-2.053 4.575-4.575v-2.688z" fill="#3a2c60"/></svg>