<svg id="Capa_1" enable-background="new 0 0 512 512" height="512" viewBox="0 0 512 512" width="512" xmlns="http://www.w3.org/2000/svg"><g><path d="m21.904 19.166h468.192v355.216h-468.192z" fill="#fee2ca"/><path d="m449.2 19.166h40.896v355.216h-40.896z" fill="#fed5b0"/><path d="m502.903 32.856h-493.806c-4.552 0-8.241-3.69-8.241-8.241v-16.374c0-4.551 3.69-8.241 8.241-8.241h493.805c4.552 0 8.241 3.69 8.241 8.241v16.373c.001 4.552-3.689 8.242-8.24 8.242z" fill="#0268b4"/><path d="m502.903 390.81h-493.806c-4.552 0-8.241-3.69-8.241-8.241v-16.373c0-4.552 3.69-8.241 8.241-8.241h493.805c4.552 0 8.241 3.69 8.241 8.241v16.373c.001 4.551-3.689 8.241-8.24 8.241z" fill="#0268b4"/><path d="m279.302 74.952h160.449c5.69 0 10.302 4.612 10.302 10.302v86.778c0 5.69-4.612 10.302-10.302 10.302h-160.449c-5.69 0-10.302-4.612-10.302-10.302v-86.778c.001-5.69 4.613-10.302 10.302-10.302z" fill="#8ac9fe"/><g><path d="m229.131 96.93h-166.331c-4.267 0-7.726-3.459-7.726-7.726 0-4.268 3.459-7.726 7.726-7.726h166.331c4.267 0 7.726 3.459 7.726 7.726.001 4.267-3.459 7.726-7.726 7.726z" fill="#3e5959"/></g><g><path d="m229.131 131.855h-166.331c-4.267 0-7.726-3.459-7.726-7.726 0-4.268 3.459-7.726 7.726-7.726h166.331c4.267 0 7.726 3.459 7.726 7.726.001 4.267-3.459 7.726-7.726 7.726z" fill="#3e5959"/></g><path d="m352.12 215.744h86.778c5.69 0 10.302 4.612 10.302 10.302v86.778c0 5.69-4.612 10.302-10.302 10.302h-86.778c-5.69 0-10.302-4.612-10.302-10.302v-86.778c0-5.69 4.613-10.302 10.302-10.302z" fill="#8ac9fe"/><path d="m309.177 279.023-40.12-29.176-119.569 122.722c-27.911 0-101.931 0-113.769 0-16.986 0-30.756 13.77-30.756 30.756v108.675h184.482c0-24.365 0-48.753 0-73.204z" fill="#c4e2ff"/><path d="m68.709 313.339v46.191l28.39 18.927 28.391-18.927v-46.191z" fill="#ffbfb1"/><path d="m165.62 246.21c-.318 0-.632.011-.947.024-5.423-32.424-33.61-57.137-67.574-57.137-33.964 0-62.152 24.713-67.574 57.137-.314-.013-.629-.024-.947-.024-12.85 0-23.267 10.417-23.267 23.267s10.417 23.267 23.267 23.267c.318 0 .632-.011.947-.024 5.423 32.424 33.61 57.137 67.574 57.137 33.964 0 62.152-24.713 67.574-57.137.314.013.629.024.947.024 12.85 0 23.267-10.417 23.267-23.267s-10.417-23.267-23.267-23.267z" fill="#ffcebf"/><g><g><path d="m63.653 288.487c-4.267 0-7.726-3.459-7.726-7.726v-12.618c0-4.268 3.459-7.726 7.726-7.726s7.726 3.459 7.726 7.726v12.618c.001 4.267-3.458 7.726-7.726 7.726z" fill="#384949"/></g><g><path d="m130.545 288.487c-4.267 0-7.726-3.459-7.726-7.726v-12.618c0-4.268 3.459-7.726 7.726-7.726s7.726 3.459 7.726 7.726v12.618c0 4.267-3.459 7.726-7.726 7.726z" fill="#384949"/></g></g><path d="m68.708 359.53-23.998 13.039 33.858 25.236 18.531-19.348z" fill="#b3dafe"/><path d="m125.49 359.53 23.998 13.039-33.858 25.236-18.531-19.348z" fill="#b3dafe"/><path d="m97.099 378.457-14.552 15.194 5.274 20.669h18.556l5.274-20.669z" fill="#fd544d"/><path d="m87.821 414.32-8.201 97.68h34.956l-8.202-97.68z" fill="#fd544d"/><g><path d="m309.173 249.869c-1.766 0-3.54-.602-4.992-1.832-3.255-2.76-3.657-7.635-.898-10.89l112.128-132.282c2.759-3.256 7.634-3.657 10.89-.898 3.255 2.76 3.657 7.635.898 10.89l-112.129 132.282c-1.528 1.803-3.706 2.73-5.897 2.73z" fill="#3e5959"/></g><path d="m502.903 0h-35.043c4.552 0 8.241 3.69 8.241 8.241v16.373c0 4.552-3.69 8.241-8.241 8.241h35.042c4.552 0 8.241-3.69 8.241-8.241v-16.373c.001-4.551-3.689-8.241-8.24-8.241z" fill="#015a9a"/><path d="m502.903 357.954h-35.043c4.552 0 8.241 3.69 8.241 8.241v16.373c0 4.552-3.69 8.241-8.241 8.241h35.042c4.552 0 8.241-3.69 8.241-8.241v-16.373c.001-4.551-3.689-8.241-8.24-8.241z" fill="#015a9a"/><path d="m269.056 249.847-12.11 12.429 23.028 16.747-119.73 159.773v73.204h29.202c0-24.365 0-48.753 0-73.204l119.731-159.772z" fill="#b3dafe"/><path d="m304.815 287.107-40.685-34.191c-3.357-2.822-3.792-7.831-.97-11.188l32.596-38.787c2.822-3.357 7.831-3.792 11.188-.97l40.685 34.191c3.357 2.822 3.792 7.831.97 11.188l-32.596 38.787c-2.821 3.357-7.83 3.791-11.188.97z" fill="#ffcebf"/><path d="m165.62 246.21c-.318 0-.632.011-.947.024-5.423-32.424-33.61-57.137-67.574-57.137-3.475 0-6.885.272-10.221.771 29.268 4.38 52.486 27.259 57.354 56.366.314-.013.629-.024.947-.024 12.85 0 23.267 10.417 23.267 23.267s-10.417 23.267-23.267 23.267c-.317 0-.632-.011-.947-.024-4.868 29.107-28.085 51.986-57.354 56.366 3.336.499 6.746.771 10.221.771 33.964 0 62.151-24.713 67.574-57.137.314.013.629.024.947.024 12.85 0 23.267-10.417 23.267-23.267s-10.417-23.267-23.267-23.267z" fill="#ffbfb1"/><path d="m347.629 236.162-40.685-34.191c-3.357-2.822-8.366-2.387-11.188.97l-4.561 5.427 33.072 27.794c3.357 2.822 3.792 7.831.97 11.188l-28.035 33.36 7.613 6.398c3.357 2.821 8.366 2.387 11.188-.97l32.596-38.787c2.822-3.359 2.387-8.368-.97-11.189z" fill="#ffbfb1"/><path d="m144.025 166.488c-5.123-8.214-14.234-13.683-24.628-13.683h-55.736c-28.398 0-51.419 23.021-51.419 51.419v42.011h97.325c9.958 0 19.037-3.752 25.911-9.913 4.806 6.038 12.214 9.913 20.532 9.913h25.945v-41.279c0-21.069-16.932-38.172-37.93-38.468z" fill="#c4573a"/><g><path d="m144.025 166.488c-5.123-8.214-14.234-13.683-24.628-13.683h-23.361c10.394 0 19.505 5.469 24.628 13.683 20.997.296 37.93 17.399 37.93 38.467v41.279h23.362v-41.279c-.001-21.068-16.933-38.171-37.931-38.467z" fill="#a74b30"/></g><path d="m125.49 359.53-10.49 6.993 11.127 6.046-20.228 15.076 9.731 10.16 33.858-25.236z" fill="#8ac9fe"/><g><path d="m146.897 307.401h-7.92c-2.884 0-5.221-2.338-5.221-5.221s2.338-5.221 5.221-5.221h7.92c2.884 0 5.221 2.338 5.221 5.221s-2.338 5.221-5.221 5.221z" fill="#ffb09e"/></g><g><path d="m55.221 307.401h-7.92c-2.884 0-5.221-2.338-5.221-5.221s2.338-5.221 5.221-5.221h7.92c2.884 0 5.221 2.338 5.221 5.221s-2.337 5.221-5.221 5.221z" fill="#ffb09e"/></g><path d="m117.703 299.182c0 15.409-9.263 27.901-20.689 27.901-11.426 0-20.689-12.492-20.689-27.901z" fill="#ffb09e"/></g></svg>