<svg height="512" viewBox="0 0 64 64" width="512" xmlns="http://www.w3.org/2000/svg"><g id="Filled_outline" data-name="Filled outline"><path d="m27 37h-3a3 3 0 0 0 -3 3v10h-6v6h12z" fill="#ffd782"/><path d="m27 37h26v24h-26z" fill="#e97424"/><path d="m53 61h-26v-9l5-2h16l5 2z" fill="#2d75bb"/><path d="m31 17h18v16h-18z" fill="#ffd782"/><path d="m31 25a4 4 0 0 1 0-8z" fill="#f9bb4b"/><path d="m49 17a4 4 0 0 1 0 8z" fill="#f9bb4b"/><g fill="#e97424"><path d="m35 37 5 5 5-5z"/><path d="m32 37 2 5h6l-5-5z"/><path d="m40 42 5-5h3l-2 5z"/></g><path d="m35 37 5 5 5-5z" fill="#ffd782"/><path d="m32 37 2 5h6l-5-5z" fill="#e1462b"/><path d="m40 42 5-5h3l-2 5z" fill="#e1462b"/><path d="m32 46h4v4h-4z" fill="#f4f4e6"/><path d="m42 55h3a0 0 0 0 1 0 0v6a0 0 0 0 1 0 0h-3a3 3 0 0 1 -3-3 3 3 0 0 1 3-3z" fill="#f9bb4b"/><path d="m9 48h6v12h-6z" fill="#e1462b"/><path d="m9 31v8l1 2v7h4v-7l1-2v-8z" fill="#87cee9"/><path d="m32 50-5 2v-15h5z" fill="#195c85"/><path d="m53 52-5-2v-13h5z" fill="#195c85"/><path d="m24 37a3 3 0 0 0 -3 3v5h6v-8z" fill="#e1462b"/><path d="m56 37h-3v18h-8v6h10a4.022 4.022 0 0 0 4-4v-17a3 3 0 0 0 -3-3z" fill="#ffd782"/><path d="m27 13h26v4h-26z" fill="#143441"/><path d="m36 3h8a9 9 0 0 1 9 9v1a0 0 0 0 1 0 0h-26a0 0 0 0 1 0 0v-1a9 9 0 0 1 9-9z" fill="#f9bb4b"/><path d="m34 9h12v4h-12z" fill="#f4f4e6"/><path d="m56 37h-3v8h6v-5a3 3 0 0 0 -3-3z" fill="#e1462b"/><path d="m41 55 8-26 7 2-8 24z" fill="#ad6327"/><rect fill="#ffd782" height="6" rx="2" width="6" x="5" y="50"/><path d="m34 28h12v2h-12z"/><path d="m34 20h2v2h-2z"/><path d="m44 20h2v2h-2z"/><path d="m39 22h2v4h-2z"/><path d="m33 53h2v2h-2z"/><path d="m56 36h-.612l1.561-4.684a1 1 0 0 0 -.674-1.278l-6.275-1.793v-2.345a5.009 5.009 0 0 0 4-4.9 4.948 4.948 0 0 0 -1.026-3h.026a1 1 0 0 0 1-1v-5a10.011 10.011 0 0 0 -10-10h-8a10.011 10.011 0 0 0 -10 10v5a1 1 0 0 0 1 1h.026a4.948 4.948 0 0 0 -1.026 3 5.009 5.009 0 0 0 4 4.9v7.1a1 1 0 0 0 1 1h15.416l-.616 2h-21.8a4 4 0 0 0 -4 4v9h-4v-1a1 1 0 0 0 -1-1v-5.764l.895-1.789a1 1 0 0 0 .105-.447v-8a1 1 0 0 0 -1-1h-6a1 1 0 0 0 -1 1v8a1 1 0 0 0 .105.447l.895 1.789v5.764a1 1 0 0 0 -1 1v1h-1a3 3 0 0 0 -3 3v2a3 3 0 0 0 3 3h1v3a1 1 0 0 0 1 1h6a1 1 0 0 0 1-1v-3h10v4a1 1 0 0 0 1 1h28a5.006 5.006 0 0 0 5-5v-17a4 4 0 0 0 -4-4zm-47 19h-2a1 1 0 0 1 -1-1v-2a1 1 0 0 1 1-1h2a1 1 0 0 1 1 1v2a1 1 0 0 1 -1 1zm5 4h-4v-2.184a3 3 0 0 0 2-2.816v-2a3 3 0 0 0 -2-2.816v-.184h4zm0-20.236-.895 1.789a1 1 0 0 0 -.105.447v6h-2v-6a1 1 0 0 0 -.105-.447l-.895-1.789v-6.764h4zm12 16.236h-10v-4h5a1 1 0 0 0 1-1v-4h4zm0-11h-4v-4a2 2 0 0 1 2-2h2zm24-20.171v-5.658a3 3 0 0 1 0 5.658zm-14-19.829h8a8.009 8.009 0 0 1 8 8h-5v-3a1 1 0 0 0 -1-1h-12a1 1 0 0 0 -1 1v3h-5a8.009 8.009 0 0 1 8-8zm9 6v2h-10v-2zm-15 13.829a3 3 0 0 1 0-5.658zm-2-7.829v-2h24v2zm4 16v-14h16v10.85l-.969 3.15zm13.083 6.331-.821 2.669h-1.848zm-1.437 4.669-1.846 6h-.8v-6zm-1.06-5-2.586 2.586-2.586-2.586zm-8 0 3 3h-2.909l-1.2-3zm-1.586 4.193.071.178a1 1 0 0 0 .929.629h5v6h-2v-3a1 1 0 0 0 -1-1h-3zm0 4.807h2v2h-2zm-5-9h3v11.323l-3 1.2zm10.556 22h-10.556v-7.323l4.193-1.677h8.992l-1.076 3.5a3.936 3.936 0 0 0 -1.553 5.5zm5.444 0h-2a2 2 0 0 1 0-4h2zm-1.646-6 7.313-23.77 5.054 1.445-7.442 22.325zm8.363-3.989 1.283-3.848v4.36zm1.283 2.667v1.322h-2.612l.7-2.088zm6 4.322a3.04 3.04 0 0 1 -3 3h-9v-4h7a1 1 0 0 0 1-1v-9h4zm0-13h-4v-3.837l.721-2.163h1.279a2 2 0 0 1 2 2z"/></g></svg>